<?xml version="1.0" encoding="UTF-8" standalone="no"?>
<!DOCTYPE svg PUBLIC "-//W3C//DTD SVG 1.1//EN"
 "http://www.w3.org/Graphics/SVG/1.1/DTD/svg11.dtd">
<!-- Generated by graphviz version 2.40.1 (20161225.0304)
 -->
<!-- Title: BreastCancerDiagnosis Pages: 1 -->
<svg width="464pt" height="116pt"
 viewBox="0.00 0.00 464.00 116.00" xmlns="http://www.w3.org/2000/svg" xmlns:xlink="http://www.w3.org/1999/xlink">
<g id="graph0" class="graph" transform="scale(1 1) rotate(0) translate(4 112)">
<title>BreastCancerDiagnosis</title>
<!-- doctor -->
<g id="node1" class="node">
<title>doctor</title>
<polygon fill="#cb6077" stroke="#000000" points="294,-36 169,-36 169,0 294,0 294,-36"/>
<text text-anchor="middle" x="231.5" y="-21.2" font-family="Times,serif" font-size="11.00" fill="#000000">Breast Cancer Diagnosis</text>
<text text-anchor="middle" x="231.5" y="-9.2" font-family="Times,serif" font-size="11.00" fill="#000000">(Doctor)</text>
</g>
<!-- manualExam -->
<g id="node2" class="node">
<title>manualExam</title>
<polygon fill="#d0c8c6" stroke="#000000" points="79,-108 0,-108 0,-72 79,-72 79,-108"/>
<text text-anchor="middle" x="39.5" y="-93.2" font-family="Times,serif" font-size="11.00" fill="#000000">Manual Exam</text>
<text text-anchor="middle" x="39.5" y="-81.2" font-family="Times,serif" font-size="11.00" fill="#000000">(Doctor)</text>
</g>
<!-- manualExam&#45;&gt;doctor -->
<g id="edge1" class="edge">
<title>manualExam&#45;&gt;doctor</title>
<path fill="none" stroke="#000000" d="M79.2825,-75.0816C106.5387,-64.8605 143.1298,-51.1388 173.6051,-39.7106"/>
<polygon fill="#000000" stroke="#000000" points="175.1309,-42.8765 183.2652,-36.088 172.673,-36.3222 175.1309,-42.8765"/>
</g>
<!-- mammogram -->
<g id="node3" class="node">
<title>mammogram</title>
<polygon fill="#a89bb9" stroke="#000000" points="173.5,-108 97.5,-108 97.5,-72 173.5,-72 173.5,-108"/>
<text text-anchor="middle" x="135.5" y="-93.2" font-family="Times,serif" font-size="11.00" fill="#000000">Mammogram</text>
<text text-anchor="middle" x="135.5" y="-81.2" font-family="Times,serif" font-size="11.00" fill="#000000">(Radiologist)</text>
</g>
<!-- mammogram&#45;&gt;doctor -->
<g id="edge2" class="edge">
<title>mammogram&#45;&gt;doctor</title>
<path fill="none" stroke="#000000" d="M159.7249,-71.8314C171.6628,-62.8779 186.2256,-51.9558 199.106,-42.2955"/>
<polygon fill="#000000" stroke="#000000" points="201.3829,-44.9629 207.2829,-36.1628 197.1829,-39.3629 201.3829,-44.9629"/>
</g>
<!-- ultrasound -->
<g id="node4" class="node">
<title>ultrasound</title>
<polygon fill="#a89bb9" stroke="#000000" points="271.5,-108 191.5,-108 191.5,-72 271.5,-72 271.5,-108"/>
<text text-anchor="middle" x="231.5" y="-93.2" font-family="Times,serif" font-size="11.00" fill="#000000">Ultrasound</text>
<text text-anchor="middle" x="231.5" y="-81.2" font-family="Times,serif" font-size="11.00" fill="#000000">(Sonographer)</text>
</g>
<!-- ultrasound&#45;&gt;doctor -->
<g id="edge3" class="edge">
<title>ultrasound&#45;&gt;doctor</title>
<path fill="none" stroke="#000000" d="M231.5,-71.8314C231.5,-64.131 231.5,-54.9743 231.5,-46.4166"/>
<polygon fill="#000000" stroke="#000000" points="235.0001,-46.4132 231.5,-36.4133 228.0001,-46.4133 235.0001,-46.4132"/>
</g>
<!-- mri -->
<g id="node5" class="node">
<title>mri</title>
<polygon fill="#a89bb9" stroke="#000000" points="365,-108 290,-108 290,-72 365,-72 365,-108"/>
<text text-anchor="middle" x="327.5" y="-93.2" font-family="Times,serif" font-size="11.00" fill="#000000">MRI</text>
<text text-anchor="middle" x="327.5" y="-81.2" font-family="Times,serif" font-size="11.00" fill="#000000">(Radiologist)</text>
</g>
<!-- mri&#45;&gt;doctor -->
<g id="edge4" class="edge">
<title>mri&#45;&gt;doctor</title>
<path fill="none" stroke="#000000" d="M303.2751,-71.8314C291.3372,-62.8779 276.7744,-51.9558 263.894,-42.2955"/>
<polygon fill="#000000" stroke="#000000" points="265.8171,-39.3629 255.7171,-36.1628 261.6171,-44.9629 265.8171,-39.3629"/>
</g>
<!-- biopsy -->
<g id="node6" class="node">
<title>biopsy</title>
<polygon fill="#a89bb9" stroke="#000000" points="456,-108 383,-108 383,-72 456,-72 456,-108"/>
<text text-anchor="middle" x="419.5" y="-93.2" font-family="Times,serif" font-size="11.00" fill="#000000">Biopsy</text>
<text text-anchor="middle" x="419.5" y="-81.2" font-family="Times,serif" font-size="11.00" fill="#000000">(Pathologist)</text>
</g>
<!-- biopsy&#45;&gt;doctor -->
<g id="edge5" class="edge">
<title>biopsy&#45;&gt;doctor</title>
<path fill="none" stroke="#000000" d="M382.6861,-75.2069C379.9184,-74.1154 377.1665,-73.0366 374.5,-72 346.6461,-61.1713 315.6262,-49.4201 289.6156,-39.6535"/>
<polygon fill="#000000" stroke="#000000" points="290.5013,-36.2478 279.9091,-36.0136 288.0435,-42.8021 290.5013,-36.2478"/>
</g>
</g>
</svg>
