<?xml version="1.0" encoding="UTF-8" standalone="no"?>
<!DOCTYPE svg PUBLIC "-//W3C//DTD SVG 1.1//EN"
 "http://www.w3.org/Graphics/SVG/1.1/DTD/svg11.dtd">
<!-- Generated by graphviz version 2.40.1 (20161225.0304)
 -->
<!-- Title: BreastCancerDiagnosis Pages: 1 -->
<svg width="624pt" height="152pt"
 viewBox="0.00 0.00 624.00 152.00" xmlns="http://www.w3.org/2000/svg" xmlns:xlink="http://www.w3.org/1999/xlink">
<g id="graph0" class="graph" transform="scale(1 1) rotate(0) translate(4 148)">
<title>BreastCancerDiagnosis</title>
<!-- model_1 -->
<g id="node1" class="node">
<title>model_1</title>
<polygon fill="#a89bb9" stroke="#000000" points="157,-144 0,-144 0,-108 157,-108 157,-144"/>
<text text-anchor="middle" x="78.5" y="-123.2" font-family="Helvetica,sans-Serif" font-size="11.00" fill="#000000">Detection Model 1 (PyTorch)</text>
</g>
<!-- model_store -->
<g id="node4" class="node">
<title>model_store</title>
<polygon fill="#f5eeeb" stroke="#000000" points="336,-90 193,-90 193,-54 336,-54 336,-90"/>
<text text-anchor="middle" x="264.5" y="-69.2" font-family="Helvetica,sans-Serif" font-size="11.00" fill="#000000">Model Store (TorchServe)</text>
</g>
<!-- model_1&#45;&gt;model_store -->
<g id="edge1" class="edge">
<title>model_1&#45;&gt;model_store</title>
<path fill="none" stroke="#000000" d="M140.6939,-107.9437C157.2909,-103.1252 175.3637,-97.8783 192.4425,-92.9199"/>
<polygon fill="#000000" stroke="#000000" points="193.7371,-96.1887 202.3647,-90.0393 191.7854,-89.4662 193.7371,-96.1887"/>
</g>
<!-- model_2 -->
<g id="node2" class="node">
<title>model_2</title>
<polygon fill="#a89bb9" stroke="#000000" points="157,-90 0,-90 0,-54 157,-54 157,-90"/>
<text text-anchor="middle" x="78.5" y="-69.2" font-family="Helvetica,sans-Serif" font-size="11.00" fill="#000000">Detection Model 2 (PyTorch)</text>
</g>
<!-- model_2&#45;&gt;model_store -->
<g id="edge2" class="edge">
<title>model_2&#45;&gt;model_store</title>
<path fill="none" stroke="#000000" d="M157.1111,-72C165.5697,-72 174.191,-72 182.6859,-72"/>
<polygon fill="#000000" stroke="#000000" points="182.9658,-75.5001 192.9658,-72 182.9658,-68.5001 182.9658,-75.5001"/>
</g>
<!-- model_3 -->
<g id="node3" class="node">
<title>model_3</title>
<polygon fill="#a89bb9" stroke="#000000" points="157,-36 0,-36 0,0 157,0 157,-36"/>
<text text-anchor="middle" x="78.5" y="-15.2" font-family="Helvetica,sans-Serif" font-size="11.00" fill="#000000">Detection Model 3 (PyTorch)</text>
</g>
<!-- model_3&#45;&gt;model_store -->
<g id="edge3" class="edge">
<title>model_3&#45;&gt;model_store</title>
<path fill="none" stroke="#000000" d="M140.6939,-36.0563C157.2909,-40.8748 175.3637,-46.1217 192.4425,-51.0801"/>
<polygon fill="#000000" stroke="#000000" points="191.7854,-54.5338 202.3647,-53.9607 193.7371,-47.8113 191.7854,-54.5338"/>
</g>
<!-- api -->
<g id="node5" class="node">
<title>api</title>
<polygon fill="#8ab3b5" stroke="#000000" points="473,-90 372,-90 372,-54 473,-54 473,-90"/>
<text text-anchor="middle" x="422.5" y="-69.2" font-family="Helvetica,sans-Serif" font-size="11.00" fill="#000000">API (TorchServe)</text>
</g>
<!-- model_store&#45;&gt;api -->
<g id="edge4" class="edge">
<title>model_store&#45;&gt;api</title>
<path fill="none" stroke="#000000" d="M336.1034,-72C344.6945,-72 353.4033,-72 361.8186,-72"/>
<polygon fill="#000000" stroke="#000000" points="361.9103,-75.5001 371.9103,-72 361.9102,-68.5001 361.9103,-75.5001"/>
</g>
<!-- webapp -->
<g id="node6" class="node">
<title>webapp</title>
<polygon fill="#cb6077" stroke="#000000" points="616,-90 509,-90 509,-54 616,-54 616,-90"/>
<text text-anchor="middle" x="562.5" y="-69.2" font-family="Helvetica,sans-Serif" font-size="11.00" fill="#000000">Web App (Django)</text>
</g>
<!-- api&#45;&gt;webapp -->
<g id="edge5" class="edge">
<title>api&#45;&gt;webapp</title>
<path fill="none" stroke="#000000" d="M483.2551,-72C488.287,-72 493.3837,-72 498.4389,-72"/>
<polygon fill="#000000" stroke="#000000" points="483.0432,-68.5001 473.0432,-72 483.0432,-75.5001 483.0432,-68.5001"/>
<polygon fill="#000000" stroke="#000000" points="498.7227,-75.5001 508.7227,-72 498.7227,-68.5001 498.7227,-75.5001"/>
</g>
</g>
</svg>
